<?xml version="1.0" standalone="no"?>
<!DOCTYPE svg PUBLIC "-//W3C//DTD SVG 20010904//EN"
 "http://www.w3.org/TR/2001/REC-SVG-20010904/DTD/svg10.dtd">
<svg version="1.0" xmlns="http://www.w3.org/2000/svg"
 width="500.000000pt" height="500.000000pt" viewBox="0 0 500.000000 500.000000"
 preserveAspectRatio="xMidYMid meet">

<g transform="translate(0.000000,500.000000) scale(0.100000,-0.100000)"
fill="#000000" stroke="none">
<path d="M2275 4879 c-1008 -97 -1851 -825 -2094 -1810 -51 -208 -65 -330 -65
-569 0 -244 15 -374 69 -586 209 -822 842 -1475 1658 -1710 496 -143 1047
-117 1528 71 721 283 1277 922 1452 1670 48 203 61 323 61 555 0 243 -15 370
-69 585 -168 666 -630 1241 -1246 1550 -395 199 -857 286 -1294 244z m400 -79
c677 -56 1266 -382 1676 -927 427 -568 564 -1320 364 -2013 -221 -769 -834
-1372 -1609 -1585 -386 -105 -824 -106 -1208 -1 -580 159 -1066 528 -1378
1046 -477 792 -425 1818 129 2553 138 183 254 302 433 444 444 352 1029 529
1593 483z"/>
<path d="M2451 4605 c-62 -53 -65 -153 -6 -212 30 -30 39 -33 90 -33 51 0 60
3 90 33 59 59 57 159 -6 211 -43 37 -124 37 -168 1z m119 -33 c25 -21 36 -85
21 -125 -25 -65 -103 -53 -117 17 -8 45 12 105 40 116 30 12 31 12 56 -8z"/>
<path d="M2228 4613 c-56 -5 -53 7 -35 -163 l12 -105 33 -3 34 -3 -3 53 c-3
46 -1 53 16 56 55 8 65 13 65 34 0 19 -4 20 -44 15 -42 -6 -44 -5 -50 24 -3
17 -4 35 -1 39 2 4 27 10 55 12 57 6 65 10 57 33 -6 15 -28 16 -139 8z"/>
<path d="M2737 4598 c-12 -50 -40 -239 -36 -242 2 -2 16 -6 32 -10 30 -7 31
-5 42 57 9 54 34 45 55 -18 14 -42 21 -50 49 -58 18 -4 35 -6 37 -4 2 2 -5 29
-15 59 l-19 55 25 25 c30 30 33 80 8 108 -18 20 -56 33 -131 45 -38 6 -42 4
-47 -17z m117 -54 c19 -18 19 -20 6 -45 -7 -12 -21 -19 -40 -19 -32 0 -33 2
-24 49 7 35 32 41 58 15z"/>
<path d="M1922 4557 c-46 -14 -89 -59 -94 -99 -8 -50 18 -123 53 -152 39 -33
87 -34 158 -1 42 20 52 29 46 43 -3 9 -11 36 -18 60 -12 46 -14 47 -69 31 -44
-12 -50 -35 -13 -49 35 -13 35 -55 0 -64 -39 -10 -63 9 -79 65 -24 80 2 119
78 119 37 0 43 10 30 44 -7 18 -42 19 -92 3z"/>
<path d="M3083 4534 c-7 -18 20 -44 44 -44 16 0 19 11 -22 -110 -19 -57 -33
-105 -31 -108 3 -2 19 -5 37 -5 32 -2 32 -1 63 90 17 50 34 95 38 98 4 4 21 3
37 -3 26 -9 31 -8 36 9 4 11 5 22 3 23 -7 6 -179 66 -189 66 -5 0 -12 -7 -16
-16z"/>
<path d="M1703 4480 c-25 -10 -23 -21 17 -101 12 -22 19 -43 17 -46 -3 -2 -37
19 -76 47 l-70 51 -35 -18 -34 -18 55 -120 c30 -66 56 -121 58 -123 1 -1 14 2
28 9 l25 11 -34 75 c-19 42 -33 78 -30 80 2 3 38 -21 80 -52 73 -55 77 -57
106 -45 17 7 29 16 28 20 -24 61 -104 240 -108 239 -3 0 -15 -4 -27 -9z"/>
<path d="M3341 4433 c-12 -24 -101 -222 -101 -226 0 -10 161 -78 170 -72 22
14 8 36 -40 60 -27 14 -50 29 -50 33 0 4 7 18 16 30 14 21 16 21 46 6 30 -15
32 -15 45 2 12 16 10 20 -22 36 -38 20 -43 34 -22 62 13 17 15 17 56 -4 44
-22 71 -21 71 2 0 11 -136 88 -155 88 -2 0 -8 -8 -14 -17z"/>
<path d="M1428 4344 c-16 -8 -28 -18 -28 -21 0 -4 30 -58 67 -119 l67 -113 29
15 c20 11 27 20 22 32 -6 16 -126 222 -129 222 0 -1 -13 -8 -28 -16z"/>
<path d="M3534 4282 c-43 -27 -78 -102 -71 -150 12 -75 120 -141 157 -97 16
20 4 32 -34 37 -17 2 -37 14 -48 29 -18 24 -18 29 -5 62 35 82 88 99 144 45
32 -31 33 -31 47 -13 45 62 -114 134 -190 87z"/>
<path d="M1227 4209 c-32 -22 -57 -44 -57 -50 0 -5 34 -56 76 -114 l76 -104
28 21 29 21 -30 44 c-26 37 -28 44 -14 49 9 4 38 -3 65 -16 l48 -23 27 21 27
21 -56 28 c-53 26 -56 29 -56 63 0 25 -7 43 -23 58 -35 33 -75 28 -140 -19z
m97 -28 c20 -22 14 -56 -12 -66 -11 -4 -24 3 -40 22 l-22 28 21 18 c27 22 32
21 53 -2z"/>
<path d="M2380 4194 c-163 -20 -212 -28 -293 -48 -313 -80 -582 -238 -812
-477 -633 -661 -629 -1690 9 -2348 501 -516 1244 -660 1906 -371 193 85 373
213 536 383 231 240 386 543 445 873 30 167 30 421 0 588 -38 213 -131 448
-249 631 -137 214 -365 427 -600 559 -162 92 -390 169 -578 196 -87 12 -309
21 -364 14z m470 -87 c156 -37 251 -71 385 -138 164 -82 288 -172 425 -309
230 -230 370 -483 447 -810 37 -157 44 -445 14 -619 -102 -595 -518 -1087
-1089 -1285 -173 -60 -273 -77 -487 -83 -164 -5 -207 -2 -314 16 -621 106
-1125 552 -1308 1156 -91 304 -85 672 18 979 193 581 673 995 1284 1107 152
28 479 21 625 -14z"/>
<path d="M3067 3826 c-73 -27 -102 -72 -94 -149 6 -65 35 -93 133 -126 75 -25
79 -28 79 -56 0 -53 -70 -71 -140 -35 -64 33 -77 28 -73 -27 3 -45 5 -49 38
-60 55 -19 179 -16 220 5 54 27 83 77 77 134 -7 83 -37 109 -159 143 -48 13
-59 20 -64 42 -5 19 -2 30 11 40 24 17 93 16 125 -2 47 -27 60 -20 60 30 0 40
-3 47 -27 56 -47 18 -145 21 -186 5z"/>
<path d="M1835 3811 c-82 -38 -125 -111 -125 -213 0 -90 16 -137 60 -179 62
-59 179 -74 303 -39 l37 11 0 109 0 110 -85 0 -85 0 0 -35 c0 -31 3 -35 26
-35 24 0 25 -2 22 -47 -3 -45 -5 -48 -32 -51 -70 -8 -103 23 -117 110 -23 145
53 227 172 185 72 -26 79 -24 79 27 0 40 -3 45 -31 55 -52 18 -178 13 -224 -8z"/>
<path d="M2190 3600 l0 -230 165 0 165 0 0 40 0 40 -105 0 -105 0 0 55 0 55
70 0 70 0 0 40 0 40 -71 0 -70 0 3 53 3 52 98 3 97 3 0 39 0 40 -160 0 -160 0
0 -230z"/>
<path d="M2560 3790 l0 -39 58 -3 57 -3 3 -192 2 -193 65 0 65 0 2 193 3 192
58 3 57 3 0 39 0 40 -185 0 -185 0 0 -40z"/>
<path d="M2296 3224 c-154 -30 -333 -110 -457 -204 -300 -226 -470 -613 -430
-979 30 -276 137 -498 334 -688 166 -161 375 -264 600 -298 l47 -7 0 111 0
111 -28 0 c-15 0 -60 9 -100 20 -233 65 -440 237 -551 457 -33 66 -81 220 -81
259 0 24 2 24 93 24 l92 0 27 -87 c35 -113 86 -200 168 -283 196 -199 497
-261 754 -153 208 87 361 273 410 496 l6 27 97 0 96 0 -7 -46 c-3 -26 -19 -85
-35 -131 -98 -284 -362 -517 -648 -573 l-63 -13 0 -108 c0 -60 4 -109 9 -109
29 0 167 32 230 54 469 162 780 640 732 1125 -24 238 -94 413 -241 603 -155
200 -434 361 -682 394 l-49 7 3 -108 3 -108 77 -18 c290 -69 532 -289 629
-572 15 -45 31 -103 34 -129 l7 -48 -95 0 -95 0 -16 67 c-72 284 -334 496
-631 510 -131 6 -222 -13 -345 -73 -77 -38 -110 -62 -175 -128 -66 -66 -89
-98 -127 -176 -25 -52 -52 -119 -58 -147 l-12 -53 -94 0 -94 0 0 28 c0 79 81
280 150 376 52 70 162 175 235 224 82 55 201 105 303 128 l72 16 0 109 c0 81
-3 109 -12 108 -7 0 -44 -7 -82 -15z m194 -589 l0 -145 -150 0 c-82 0 -150 2
-150 5 0 3 16 37 35 75 61 121 157 210 227 210 l38 0 0 -145z m136 117 c60
-44 110 -105 149 -182 19 -38 35 -72 35 -75 0 -3 -67 -5 -150 -5 l-150 0 0
145 0 145 38 0 c27 0 51 -9 78 -28z m-348 -50 c-40 -45 -83 -119 -107 -184
-10 -28 -11 -28 -106 -28 -65 0 -95 4 -95 11 0 7 35 47 78 89 58 57 100 88
161 118 109 55 123 54 69 -6z m514 6 c61 -32 103 -63 161 -120 42 -42 77 -82
77 -87 0 -7 -34 -11 -94 -11 l-94 0 -40 84 c-22 47 -59 105 -83 130 -53 58
-36 59 73 4z m-647 -266 c-14 -48 -35 -179 -35 -228 l0 -54 -66 0 -67 0 6 45
7 45 -60 0 c-33 0 -60 3 -60 8 0 19 24 92 47 145 l26 57 104 0 c97 0 104 -1
98 -18z m345 -132 l0 -150 -179 0 -178 0 4 53 c5 68 20 162 33 210 l11 37 154
0 155 0 0 -150z m340 108 c6 -24 14 -52 17 -63 3 -11 9 -59 12 -107 l6 -88
-177 0 -178 0 0 150 0 150 155 0 154 0 11 -42z m227 30 c18 -24 52 -115 59
-157 l7 -41 -60 0 -61 0 6 -45 5 -45 -60 0 -60 0 -6 88 c-4 48 -14 112 -22
142 -8 30 -15 58 -15 63 0 13 197 8 207 -5z m-945 -411 c4 -48 14 -114 23
-146 8 -33 15 -62 15 -65 0 -3 -45 -6 -100 -6 l-100 0 -24 48 c-19 37 -56 143
-56 159 0 2 27 3 60 3 l61 0 -7 51 -7 50 64 -3 64 -3 7 -88z m373 -62 l0 -150
-152 -3 -152 -3 -11 39 c-22 83 -38 220 -31 265 0 4 79 6 174 5 l172 -3 0
-150z m377 85 c-4 -68 -15 -136 -32 -202 l-11 -39 -152 3 -152 3 -3 140 c-1
76 0 145 2 152 4 11 42 13 178 11 l173 -3 -3 -65z m146 20 l-5 -50 63 0 c35 0
64 -1 64 -2 -1 -17 -32 -115 -50 -155 l-22 -53 -98 0 c-53 0 -99 2 -102 5 -3
3 1 31 8 63 8 31 16 93 20 137 3 44 7 86 10 93 2 8 23 12 60 12 l57 0 -5 -50z
m-198 -284 c0 -18 -49 -111 -85 -162 -54 -76 -123 -124 -177 -124 l-38 0 0
138 c0 76 3 142 7 145 7 7 293 10 293 3z m-612 -89 c23 -46 60 -104 82 -130
23 -26 39 -47 36 -47 -21 0 -122 49 -178 86 -62 42 -137 115 -159 157 -9 16
-2 17 84 17 l94 0 41 -83z m290 -59 l-3 -143 -28 -3 c-72 -8 -206 128 -256
261 l-11 27 151 0 150 0 -3 -142z m536 130 c-40 -71 -142 -158 -239 -206 -107
-53 -113 -51 -59 14 26 33 63 91 82 131 l34 73 95 0 c72 0 93 -3 87 -12z"/>
<path d="M3716 4083 l-85 -98 25 -25 25 -25 39 45 39 45 32 -31 31 -32 -37
-41 -37 -41 23 -20 c13 -10 27 -19 31 -20 4 0 46 44 93 97 l85 97 -25 25 -25
25 -36 -43 -37 -42 -28 27 c-16 15 -29 31 -29 36 0 4 14 24 32 44 l32 36 -25
19 c-13 10 -27 19 -31 19 -4 0 -45 -44 -92 -97z"/>
<path d="M1037 4051 l-61 -59 88 -96 c49 -53 91 -96 94 -96 7 0 126 112 130
123 2 4 -2 14 -9 23 -11 13 -18 9 -55 -27 -43 -42 -44 -42 -64 -24 -26 24 -25
31 8 60 26 23 26 25 10 41 -17 17 -19 17 -46 -9 l-28 -27 -22 23 -22 23 40 39
c30 30 37 42 29 52 -18 21 -28 16 -92 -46z"/>
<path d="M3940 3894 c-52 -46 -96 -88 -97 -92 -1 -4 4 -15 12 -26 13 -17 18
-15 81 38 37 30 69 54 71 52 2 -1 -13 -45 -32 -97 l-35 -94 23 -22 22 -23 102
88 c94 81 100 88 86 105 -9 9 -20 17 -24 17 -5 0 -31 -21 -60 -46 -28 -25 -53
-43 -55 -41 -3 2 9 41 26 86 l30 81 -28 30 -27 29 -95 -85z"/>
<path d="M865 3869 c-49 -60 -55 -72 -42 -82 8 -7 53 -45 100 -84 46 -40 87
-73 90 -73 2 0 31 32 62 71 52 63 57 72 43 85 -14 14 -19 11 -53 -30 l-37 -46
-30 21 -29 21 25 27 c30 32 33 46 9 56 -12 4 -24 -2 -38 -19 -25 -31 -36 -32
-59 -7 -17 18 -16 21 18 59 42 46 42 48 18 61 -16 8 -28 -1 -77 -60z"/>
<path d="M4118 3668 c-59 -40 -107 -76 -108 -79 0 -4 9 -17 19 -30 l19 -24
102 70 c57 39 107 73 112 76 10 7 -18 59 -31 59 -4 0 -55 -33 -113 -72z"/>
<path d="M742 3709 c-7 -12 -12 -22 -10 -24 2 -1 30 -20 63 -41 l60 -39 -92
-3 c-91 -3 -93 -3 -108 -32 l-15 -29 55 -36 c185 -118 167 -109 182 -89 7 10
13 21 13 25 0 4 -33 28 -72 53 l-73 46 106 0 c103 0 106 1 119 25 8 15 10 29
4 33 -24 21 -201 132 -210 132 -5 0 -15 -9 -22 -21z"/>
<path d="M4187 3569 c-41 -22 -77 -71 -77 -107 0 -31 27 -92 52 -119 23 -25
44 -29 68 -13 12 8 10 14 -17 39 -18 16 -35 42 -39 57 -6 24 -2 33 31 61 68
59 145 38 145 -39 0 -29 6 -33 34 -22 23 9 20 41 -9 91 -43 72 -113 92 -188
52z"/>
<path d="M592 3445 c-7 -14 -12 -28 -12 -30 0 -3 54 -32 120 -65 l120 -60 16
31 c8 17 14 32 12 34 -8 8 -229 115 -236 115 -5 0 -14 -11 -20 -25z"/>
<path d="M527 3307 c-41 -62 -40 -153 1 -190 26 -24 87 -47 122 -47 70 0 123
60 132 149 3 33 1 35 -52 57 -30 12 -58 20 -62 18 -4 -3 -13 -23 -20 -45 -10
-34 -9 -42 3 -50 9 -6 18 -4 26 7 9 12 16 13 32 4 22 -11 25 -19 15 -45 -16
-40 -94 -37 -148 6 -29 23 -33 52 -11 89 27 47 28 52 14 61 -23 14 -36 11 -52
-14z"/>
<path d="M4233 3303 c-24 -2 -43 -8 -43 -13 0 -27 15 -40 46 -40 31 0 37 -4
54 -42 l18 -43 -24 -22 c-19 -17 -23 -29 -18 -48 3 -14 10 -27 14 -30 5 -3 56
36 115 86 79 68 104 96 99 108 -3 9 -9 24 -11 34 -5 15 -18 17 -107 15 -55 -1
-120 -3 -143 -5z m177 -51 c0 -10 -56 -52 -70 -52 -5 0 -10 4 -10 9 0 5 -3 16
-6 24 -4 11 2 17 23 20 50 7 63 7 63 -1z"/>
<path d="M4440 3070 c-58 -15 -117 -30 -132 -33 l-26 -7 20 -77 c24 -89 28
-96 52 -87 13 5 16 13 11 32 -21 84 -28 76 89 103 110 25 112 27 98 75 l-7 21
-105 -27z"/>
<path d="M435 3042 c-7 -30 3 -38 63 -47 94 -14 94 -21 0 -49 -85 -26 -87 -28
-94 -62 -3 -19 -5 -37 -2 -39 6 -6 249 -57 253 -53 2 1 5 14 7 28 3 23 -1 25
-74 40 -42 8 -80 18 -83 22 -4 4 33 19 81 33 89 27 114 44 114 76 0 21 -1 21
-147 52 l-112 24 -6 -25z"/>
<path d="M4520 2773 c-28 -11 -49 -35 -55 -67 -12 -58 -16 -66 -35 -66 -24 0
-34 31 -25 87 6 44 6 44 -22 41 -27 -3 -28 -5 -31 -69 -3 -59 0 -70 21 -95 18
-21 33 -28 60 -28 54 0 70 20 91 117 14 63 61 14 50 -53 -6 -38 -5 -40 19 -40
22 0 27 6 32 33 9 45 -11 113 -38 132 -22 15 -41 18 -67 8z"/>
<path d="M387 2763 c-3 -5 -6 -46 -8 -93 l-4 -85 130 -12 c72 -6 131 -10 132
-9 1 1 5 43 9 94 7 90 6 92 -15 92 -17 0 -21 -6 -21 -32 0 -64 -9 -79 -44 -76
-29 3 -31 5 -28 39 3 29 -1 37 -17 42 -16 4 -21 -2 -26 -34 -6 -35 -10 -39
-36 -39 -29 0 -29 0 -29 60 0 53 -2 60 -19 60 -11 0 -22 -3 -24 -7z"/>
<path d="M4360 2435 c0 -88 2 -95 20 -95 16 0 19 8 22 63 3 62 3 62 36 65 31
3 32 2 32 -37 0 -34 3 -41 20 -41 13 0 22 9 26 28 11 49 14 53 36 50 20 -3 23
-10 26 -60 3 -54 5 -58 27 -58 25 0 25 1 25 90 l0 90 -135 0 -135 0 0 -95z"/>
<path d="M600 2396 l0 -53 -110 -8 -110 -7 0 -35 0 -35 108 7 c59 3 120 9 136
12 l29 5 -7 61 c-3 33 -6 71 -6 83 0 17 -6 24 -20 24 -18 0 -20 -7 -20 -54z"/>
<path d="M4357 2313 c-4 -3 -7 -19 -7 -34 0 -25 4 -28 45 -35 65 -9 62 -36 -7
-60 -48 -17 -53 -22 -56 -53 -3 -26 0 -32 11 -28 8 3 33 11 56 18 38 11 43 10
64 -9 30 -28 90 -29 116 -3 19 19 41 99 41 146 0 28 -1 29 -147 50 -120 18
-108 17 -116 8z m200 -97 c9 -9 -6 -54 -19 -59 -7 -2 -23 -1 -35 4 -17 6 -23
16 -23 40 0 31 1 31 36 26 20 -3 39 -8 41 -11z"/>
<path d="M522 2174 l-114 -67 7 -36 c4 -20 8 -37 8 -38 5 -4 278 -35 282 -31
2 2 2 14 -2 26 -4 16 -13 22 -34 22 -22 0 -32 6 -39 26 -17 43 -12 71 16 91
21 15 24 24 19 46 -4 15 -12 27 -19 27 -6 0 -62 -30 -124 -66z m48 -58 c0 -8
3 -21 6 -30 5 -12 0 -16 -22 -15 -16 1 -40 4 -54 8 -25 7 -24 8 15 29 48 25
55 26 55 8z"/>
<path d="M4433 2020 c-72 -3 -134 -7 -136 -10 -3 -3 -8 -21 -12 -40 l-6 -35
111 -79 c88 -62 114 -76 121 -65 19 31 7 49 -66 100 -42 28 -74 54 -72 56 2 2
46 7 97 11 91 7 94 8 101 34 4 16 4 29 1 30 -4 2 -66 1 -139 -2z"/>
<path d="M615 1945 c-14 -13 -25 -32 -25 -41 0 -16 -1 -16 -18 -1 -25 22 -48
21 -72 -3 -24 -24 -25 -50 -5 -116 25 -82 18 -81 150 -38 65 22 119 44 122 50
7 18 -38 126 -63 151 -30 30 -59 29 -89 -2z m79 -57 c9 -12 16 -25 16 -29 0
-11 -58 -31 -69 -24 -17 10 -13 53 7 64 24 15 29 14 46 -11z m-102 -53 c13
-30 10 -35 -28 -38 -24 -2 -30 2 -32 22 -7 43 42 56 60 16z"/>
<path d="M4221 1799 c-6 -18 -10 -33 -9 -35 3 -2 233 -95 243 -97 4 -1 13 12
20 29 l13 32 -116 47 c-65 26 -122 49 -128 52 -7 2 -17 -10 -23 -28z"/>
<path d="M670 1701 c-43 -22 -80 -75 -80 -113 0 -110 120 -176 211 -115 88 58
86 173 -4 227 -40 25 -82 25 -127 1z m122 -58 c43 -39 11 -97 -68 -123 -29
-10 -39 -9 -59 4 -47 31 -24 90 48 121 42 19 57 18 79 -2z"/>
<path d="M4182 1673 c-58 -28 -94 -131 -53 -152 22 -12 31 -5 31 26 0 32 16
60 40 73 38 20 140 -42 140 -86 0 -7 -14 -30 -32 -50 -30 -34 -31 -37 -14 -50
42 -30 102 55 93 133 -6 52 -27 79 -82 104 -49 23 -80 23 -123 2z"/>
<path d="M891 1511 c-12 -8 -10 -16 12 -50 15 -22 27 -44 27 -48 0 -5 -39 -34
-85 -66 -47 -32 -85 -62 -85 -66 0 -5 8 -19 18 -31 l18 -22 105 71 c57 40 105
76 107 81 3 8 -84 133 -96 137 -4 2 -13 -1 -21 -6z"/>
<path d="M4029 1448 c-63 -88 -63 -89 -48 -99 22 -14 27 -11 55 31 30 45 35
47 69 24 l25 -16 -20 -28 c-24 -34 -25 -46 -3 -54 16 -6 22 -1 44 37 12 21 18
21 47 -1 l23 -18 -31 -42 c-16 -23 -30 -46 -30 -51 0 -7 22 -21 34 -21 4 0 96
136 96 142 0 6 -206 158 -214 158 -2 0 -23 -28 -47 -62z"/>
<path d="M980 1305 l-44 -45 24 -27 c14 -16 28 -32 32 -37 4 -5 14 -4 23 4 11
9 12 16 5 25 -7 8 -4 17 10 30 19 17 21 17 40 0 11 -10 20 -29 20 -43 0 -29
-56 -88 -93 -98 -35 -8 -75 18 -89 57 -12 34 -15 35 -39 13 -22 -20 -14 -41
34 -91 41 -43 86 -58 131 -43 42 14 102 77 110 117 12 52 -32 131 -91 165
l-30 17 -43 -44z"/>
<path d="M3910 1294 c-32 -28 -60 -73 -60 -98 0 -8 12 -28 26 -45 32 -39 62
-40 122 -5 39 23 46 24 59 11 20 -20 3 -51 -38 -73 -29 -15 -30 -16 -14 -34
21 -23 39 -16 84 35 76 87 -8 189 -104 125 -33 -22 -60 -26 -70 -10 -13 20 7
51 46 71 33 17 38 23 29 35 -18 21 -45 17 -80 -12z"/>
<path d="M1386 980 c-3 -8 -12 -33 -19 -55 l-14 -40 -64 -5 -64 -5 35 -22 c75
-49 72 -43 50 -107 -10 -31 -16 -56 -13 -56 3 0 22 14 43 30 21 17 44 30 51
30 8 0 32 -14 53 -30 22 -17 41 -29 42 -27 2 1 -4 27 -13 57 l-16 54 28 21
c77 56 76 54 8 55 l-61 0 -20 58 c-12 35 -22 51 -26 42z"/>
<path d="M3586 935 l-17 -55 -62 -1 -62 0 29 -22 c75 -57 70 -47 53 -107 -9
-30 -15 -56 -13 -57 1 -2 20 10 42 27 21 16 44 30 50 30 6 0 30 -13 52 -30 23
-16 44 -30 46 -30 3 0 -4 25 -14 56 -22 64 -25 58 50 107 l35 22 -64 5 -64 5
-16 47 c-9 26 -19 49 -22 52 -3 3 -13 -19 -23 -49z"/>
<path d="M1736 800 c-3 -8 -12 -33 -19 -55 l-14 -40 -64 -5 -64 -5 52 -33 51
-33 -18 -59 c-20 -67 -19 -67 49 -16 l34 25 45 -35 c25 -19 47 -33 49 -31 1 2
-4 28 -13 58 l-16 54 27 20 c77 56 76 54 8 55 l-61 0 -20 58 c-12 35 -22 51
-26 42z"/>
<path d="M3236 755 l-17 -55 -62 -1 -62 0 29 -22 c75 -57 70 -47 52 -107 -9
-29 -14 -55 -13 -57 2 -2 24 12 49 32 l46 34 45 -34 c44 -34 63 -43 54 -27 -3
4 -12 30 -20 59 l-16 52 52 33 52 33 -64 5 -64 5 -16 47 c-9 26 -19 49 -22 52
-3 3 -13 -19 -23 -49z"/>
<path d="M2086 680 c-3 -8 -12 -33 -19 -55 l-14 -40 -62 -3 -63 -3 49 -36 c26
-20 49 -37 51 -38 1 -1 -7 -27 -17 -58 -11 -32 -17 -57 -14 -57 3 0 22 14 43
30 21 17 44 30 51 30 8 0 32 -14 53 -30 22 -17 41 -29 42 -27 2 2 -4 27 -14
56 -18 59 -22 52 56 110 l27 20 -62 1 -61 0 -20 58 c-12 35 -22 51 -26 42z"/>
<path d="M2886 635 l-17 -55 -62 0 -62 -1 27 -20 c78 -58 74 -51 56 -110 -10
-29 -16 -54 -14 -56 1 -2 20 10 42 27 21 16 45 30 53 30 7 0 30 -13 51 -30 21
-16 40 -30 43 -30 3 0 -3 25 -14 57 -10 31 -18 57 -17 58 2 1 25 18 51 38 l49
36 -63 3 -62 3 -16 47 c-9 26 -19 49 -22 52 -3 3 -13 -19 -23 -49z"/>
<path d="M2476 605 l-17 -55 -61 0 -61 0 47 -35 c51 -40 52 -44 31 -105 -8
-24 -14 -45 -12 -47 2 -1 21 10 43 27 49 37 59 37 108 0 22 -17 41 -28 43 -27
2 2 -4 23 -12 47 -21 61 -20 65 31 105 l47 35 -61 0 -61 0 -17 55 c-10 30 -21
55 -24 55 -3 0 -14 -25 -24 -55z"/>
</g>
</svg>
